<svg width="191" height="34" viewBox="0 0 191 34" fill="none" xmlns="http://www.w3.org/2000/svg">
<path d="M0.5 33.368V0.632019H14.832C15.9783 0.659863 17.1211 0.768802 18.252 0.958019C19.4302 1.20755 20.541 1.70752 21.509 2.42402C22.6131 3.39268 23.4536 4.6254 23.952 6.00702C24.672 7.98817 25.0037 10.0894 24.929 12.196C24.9645 14.3415 24.6903 16.4808 24.115 18.548C23.67 19.9158 22.8856 21.1485 21.835 22.131C20.9343 22.8925 19.8785 23.4484 18.741 23.76C17.6851 24.0814 16.5877 24.2462 15.484 24.249C14.8822 24.2688 14.2803 24.214 13.692 24.086C13.041 24.086 12.552 23.923 11.9 23.923C11.249 23.76 10.76 23.76 10.271 23.597C9.90453 23.4732 9.51854 23.4173 9.132 23.432V33.204H0.5V33.368ZM8.969 16.593H13.855C14.3858 16.6062 14.9044 16.4332 15.321 16.104C15.5499 15.9394 15.7308 15.7169 15.8452 15.4593C15.9596 15.2016 16.0034 14.9182 15.972 14.638C16.1966 13.8992 16.3066 13.1302 16.298 12.358C16.298 11.381 16.135 10.729 16.135 10.078C15.9399 9.60138 15.6646 9.16168 15.321 8.77802C14.9677 8.45227 14.5014 8.27689 14.021 8.28902H9.132V16.595L8.969 16.593Z" fill="#F2F1ED"/>
<path d="M28.35 33.368V0.632022H42.356C43.6753 0.613283 44.9909 0.777855 46.265 1.12102C47.4275 1.45547 48.49 2.07051 49.359 2.91202C50.3203 3.87261 51.0454 5.04338 51.477 6.33202C51.9742 8.07852 52.1939 9.89231 52.128 11.707C52.1076 12.9078 51.9987 14.1053 51.802 15.29C51.6489 16.214 51.317 17.0992 50.825 17.896C50.4804 18.598 49.9788 19.2112 49.359 19.688C48.7904 20.1597 48.1918 20.5939 47.567 20.988L53.267 33.688H44.636L40.076 22.45H36.819V33.693H28.35V33.368ZM36.819 15.29H40.728C41.1676 15.316 41.6083 15.2607 42.028 15.127C42.3298 14.9512 42.6041 14.7319 42.842 14.476C43.1305 14.1631 43.3031 13.7607 43.331 13.336C43.4741 12.8056 43.5291 12.2553 43.494 11.707C43.5291 11.1588 43.4741 10.6084 43.331 10.078C43.2376 9.72195 43.071 9.38922 42.842 9.10102C42.6041 8.84519 42.3298 8.62583 42.028 8.45002C41.6107 8.3059 41.1679 8.25038 40.728 8.28702H36.819V15.287V15.29Z" fill="#F2F1ED"/>
<path d="M76.395 12.195C76.0266 12.3407 75.6448 12.4499 75.255 12.521V12.684H74.929C74.603 12.684 74.278 12.684 74.115 13.01C73.5462 14.1823 73.2142 15.4553 73.138 16.756C72.975 19.036 72.649 19.199 73.952 18.548C74.3187 18.3555 74.6998 18.192 75.092 18.059C76.558 17.408 78.349 16.759 79.326 17.57C80.466 18.547 81.443 19.85 82.583 20.664C82.909 20.99 83.234 21.153 83.56 21.478C83.6985 19.9077 83.7529 18.3311 83.723 16.755C83.761 13.9109 83.4887 11.0711 82.911 8.28602C82.5174 6.39743 81.6165 4.65186 80.305 3.23702C79.0811 2.05008 77.5653 1.20765 75.911 0.795022C73.8099 0.450885 71.6831 0.287288 69.554 0.306022C67.5246 0.234414 65.4953 0.453636 63.528 0.957022C61.8865 1.40632 60.3773 2.24427 59.128 3.40002C57.8166 4.81486 56.9156 6.56043 56.522 8.44902C55.9436 11.234 55.6707 14.0738 55.708 16.918C55.6707 19.7622 55.9436 22.602 56.522 25.387C56.9847 27.2509 57.8784 28.9803 59.131 30.436C60.3565 31.6242 61.8745 32.4671 63.531 32.879C65.5017 33.3634 67.5283 33.5823 69.557 33.53C71.5861 33.5918 73.614 33.3728 75.583 32.879C77.2395 32.4671 78.7575 31.6242 79.983 30.436C81.2945 29.0212 82.1954 27.2756 82.589 25.387C82.589 25.224 82.752 24.898 82.752 24.736C82.752 24.574 82.589 24.247 82.101 24.085C81.613 23.923 80.961 23.108 80.801 22.945C80.641 22.782 77.861 20.664 77.861 20.506C77.861 20.348 77.535 20.18 76.884 20.832C76.395 21.158 75.255 21.972 74.441 22.461C74.1889 22.6125 73.914 22.7226 73.627 22.787C73.7093 23.1209 73.8183 23.4476 73.953 23.764C74.484 25.0325 74.9186 26.3392 75.253 27.673C75.253 28.65 75.253 29.302 73.953 29.302C72.813 29.302 70.533 28.488 66.624 26.533C66.461 26.207 66.135 26.207 65.81 26.207C65.485 26.207 65.81 25.718 64.67 25.556C63.7214 25.2589 62.7137 25.2029 61.738 25.393C61.249 25.556 60.598 25.23 61.249 24.579C62.231 23.8101 63.3309 23.2049 64.506 22.787C64.9108 22.5563 65.3496 22.3913 65.806 22.298C66.295 22.135 66.457 22.624 66.457 23.112C66.62 23.601 66.62 23.926 66.946 24.089C67.272 24.415 69.715 25.229 69.878 25.389C70.041 25.389 70.204 24.9 69.552 24.412C68.9 23.924 67.923 23.435 67.76 22.946C67.3337 22.3706 67.0543 21.6999 66.946 20.992C66.783 20.015 67.109 19.852 67.109 17.735V12.358C66.5358 12.4902 65.9864 12.7097 65.48 13.009C64.829 13.172 64.503 13.172 64.014 13.335C63.525 13.498 63.037 13.824 62.548 13.986C62.0428 14.2555 61.4891 14.4217 60.919 14.475C60.43 14.638 58.965 15.615 58.639 15.775C58.313 15.935 57.662 16.264 57.173 15.938C57.0379 15.6283 57.0127 15.2818 57.1017 14.9558C57.1906 14.6299 57.3883 14.3441 57.662 14.146H59.291C59.7519 13.9214 60.1877 13.6485 60.591 13.332C61.5267 12.6214 62.5745 12.0719 63.691 11.706C63.817 11.7036 63.9408 11.673 64.0534 11.6166C64.166 11.5602 64.2646 11.4794 64.342 11.38C64.8575 10.8438 65.4643 10.4036 66.134 10.08C67.3423 9.452 68.6814 9.11731 70.043 9.10302C70.532 9.10302 70.857 9.26602 71.183 8.77702C71.2533 8.50912 71.3077 8.23732 71.346 7.96302C71.3336 7.57369 71.3992 7.18581 71.539 6.82223C71.6788 6.45865 71.8899 6.12673 72.16 5.84602C73.137 4.86902 73.626 4.86902 74.603 5.35702C75.58 5.84502 76.557 6.82302 76.557 7.47402C76.5747 7.70731 76.5221 7.94056 76.4061 8.14372C76.2901 8.34689 76.1159 8.51068 75.906 8.61402C75.743 8.77702 75.743 9.26502 75.417 9.42802C75.091 9.59102 75.091 10.242 75.417 9.91702C75.9661 9.54833 76.5723 9.27264 77.211 9.10102C77.4687 8.3136 77.5792 7.48546 77.537 6.65802C77.537 6.33202 77.537 5.02902 76.886 4.86602C76.397 4.54002 75.094 4.05202 76.072 3.23702C77.05 2.42202 78.026 3.07402 78.026 3.72602C78.1231 4.9522 78.3966 6.15796 78.838 7.30602C79.164 7.95702 79.327 9.42302 78.838 9.91202C78.349 10.401 77.211 12.032 76.395 12.195Z" fill="#F2F1ED"/>
<path d="M123.788 0.795019C121.993 0.795019 119.879 0.632019 117.436 0.632019C116.505 0.660139 115.579 0.769217 114.667 0.958019C113.725 1.22473 112.841 1.66567 112.061 2.25802C111.239 2.91956 110.572 3.75351 110.107 4.70102C109.554 5.9299 109.276 7.26465 109.293 8.61202V25.712C109.209 27.1876 109.548 28.6566 110.27 29.946C110.858 30.8606 111.635 31.6381 112.55 32.226C113.473 32.6966 114.461 33.0259 115.482 33.203C116.344 33.3335 117.216 33.388 118.088 33.366C119.554 33.366 121.182 33.366 122.811 33.203C124.44 33.04 126.068 33.04 127.697 32.877C129.326 32.714 130.791 32.551 131.931 32.388V25.224H119.716C119.382 25.2497 119.047 25.1938 118.739 25.061C118.439 24.8685 118.21 24.5824 118.088 24.247C117.884 23.9615 117.77 23.6211 117.762 23.27V20.832L129.651 20.343V13.661L117.762 13.172V10.404C117.742 10.1394 117.775 9.8734 117.858 9.62164C117.942 9.36988 118.076 9.13745 118.251 8.93802C118.789 8.60609 119.41 8.43631 120.042 8.44902H131.768V1.28302C130.793 1.12102 129.651 1.12102 128.348 0.958019C127.045 0.958019 125.579 0.795019 123.788 0.795019Z" fill="url(#paint0_linear_1_63)"/>
<path d="M143.82 0.632019L134.211 33.368H143.006L144.306 28.156H154.078L155.378 33.368H164.173L154.569 0.632019H143.82ZM146.263 20.501L149.194 7.96102L152.126 20.502L146.263 20.501Z" fill="url(#paint1_linear_1_63)"/>
<path d="M189.911 6.00702C189.413 4.6254 188.572 3.39268 187.468 2.42402C186.539 1.64329 185.411 1.13578 184.211 0.958019C183.08 0.768802 181.937 0.659863 180.791 0.632019H166.459V33.368H174.928V23.596C175.254 23.596 175.579 23.759 176.068 23.759C176.557 23.922 177.045 23.922 177.697 24.085C178.284 24.2199 178.887 24.2747 179.489 24.248C180.14 24.248 180.629 24.411 181.28 24.411C182.383 24.3964 183.479 24.2319 184.537 23.922C185.674 23.6104 186.73 23.0545 187.631 22.293C188.682 21.3105 189.466 20.0778 189.911 18.71C190.566 16.6598 190.842 14.5072 190.725 12.358C190.842 10.2091 190.566 8.05693 189.911 6.00702ZM182.094 14.802C182.011 15.3398 181.786 15.8457 181.443 16.268C181.244 16.4431 181.011 16.5766 180.759 16.6606C180.508 16.7445 180.242 16.7773 179.977 16.757H175.091V8.28702H179.977C180.457 8.27489 180.924 8.45027 181.277 8.77602C181.62 9.19833 181.845 9.70428 181.928 10.242C182.076 10.9925 182.13 11.7582 182.091 12.522C182.255 13.2727 182.256 14.0509 182.094 14.802Z" fill="url(#paint2_linear_1_63)"/>
<path d="M96.101 25.387C95.9133 25.3205 95.7428 25.2129 95.602 25.072C95.4612 24.9312 95.3536 24.7607 95.287 24.573C95.0839 24.169 94.9725 23.7251 94.961 23.273V0.469025H86.492V23.269C86.7734 23.2941 87.056 23.2375 87.306 23.106C87.957 22.943 89.586 21.966 89.749 22.292C89.912 22.618 89.098 23.758 88.772 24.084C88.2665 24.7144 87.7224 25.3128 87.143 25.876L87.306 26.365L86.817 26.854C86.8918 27.8756 87.1685 28.8721 87.631 29.786C88.1509 31.0393 89.1467 32.0351 90.4 32.555C91.9457 33.1951 93.6173 33.4735 95.287 33.369H107.176V25.713H97.73C97.1704 25.717 96.616 25.6061 96.101 25.387Z" fill="url(#paint3_linear_1_63)"/>
<defs>
<linearGradient id="paint0_linear_1_63" x1="207.176" y1="-3.32936" x2="12.3106" y2="19.13" gradientUnits="userSpaceOnUse">
<stop stop-color="#359959"/>
<stop offset="1" stop-color="#FFC943"/>
</linearGradient>
<linearGradient id="paint1_linear_1_63" x1="208.816" y1="3.74193" x2="15.3938" y2="42.7846" gradientUnits="userSpaceOnUse">
<stop stop-color="#359959"/>
<stop offset="1" stop-color="#FFC943"/>
</linearGradient>
<linearGradient id="paint2_linear_1_63" x1="209.821" y1="7.57205" x2="14.8896" y2="33.402" gradientUnits="userSpaceOnUse">
<stop stop-color="#359959"/>
<stop offset="1" stop-color="#FFC943"/>
</linearGradient>
<linearGradient id="paint3_linear_1_63" x1="205.715" y1="-9.27573" x2="11.0425" y2="9.24719" gradientUnits="userSpaceOnUse">
<stop stop-color="#359959"/>
<stop offset="1" stop-color="#FFC943"/>
</linearGradient>
</defs>
</svg>
